# xmcd CD database file
#
# Track frame offsets:
#	150
#	12712
#	30728
#	43196
#	56311
#	68894
#	86412
#	103468
#	116778
#	130439
#	144667
#	160316
#	172718
#	186414
#
# Disc length: 2679 seconds
#
# Revision: 0
# Processed by: cddbd v1.5.1PL0 Copyright (c) Steve Scherf et al.
# Submitted via: CDex 1.51
#
DISCID=cc0a750e
DTITLE=Billy Pierson - Let Me Take You On A Country Cruise
DYEAR=2003
DGENRE=Country
TTITLE0=I Worship The Woman You Walk On
TTITLE1=Betcha  Didn't Know
TTITLE2=Country Cruise
TTITLE3=It's Just A Hole In The Wall
TTITLE4=Need To Know Basis
TTITLE5=Angel's Arms
TTITLE6=Pressure
TTITLE7=Anytime You Wanna' Fool Around
TTITLE8=You Never Cross My Mind Since I Last It
TTITLE9=Let's Go Home
TTITLE10=You Can't keep A Redneck Blue
TTITLE11=My Pickup Truck Never Lets Me Down
TTITLE12=Too Hot To Handle (Too Cold To Hold)
TTITLE13=United We Stand
EXTD=YEAR: 2003
EXTT0=
EXTT1=
EXTT2=
EXTT3=
EXTT4=
EXTT5=
EXTT6=
EXTT7=
EXTT8=
EXTT9=
EXTT10=
EXTT11=
EXTT12=
EXTT13=
PLAYORDER=
